<svg version="1.1" preserveAspectRatio="none" xmlns="http://www.w3.org/2000/svg" width="500" height="500" viewBox="0 0 500 500"><rect width="100%" height="100%" fill="#e91e63" fill-opacity="1"/><svg viewBox="483.685 481.2 232.63 168" width="333" height="240.4848901689378" x="83.5px" y="129.7576px" xmlns="http://www.w3.org/2000/svg" xmlns:xlink="http://www.w3.org/1999/xlink" preserveAspectRatio="none"><defs fill="#000000"/><style>.companyName {fill:#F3F3F3;fill-opacity:1;}.icon1 {fill:#F3F3F3;fill-opacity:1;}.icon3-str {stroke:#B2B2B2;stroke-opacity:1;}</style><g opacity="1" transform="rotate(0 570.8478 625.2)">
<svg width="58.3044" height="24" x="570.8478" y="625.2" version="1.1" preserveAspectRatio="none" viewBox="4.16 -29.08 71.44 29.4">
  <g transform="matrix(1 0 0 1 0 0)" class="icon1"><path id="id-6izo4zJp3" d="M17.04-15Q19.52-14.04 20.96-12.26Q22.40-10.48 22.40-8.12L22.40-8.12Q22.40-5.36 21.06-3.54Q19.72-1.72 17.54-0.86Q15.36 0 12.76 0L12.76 0L4.16 0L4.16-28.92L11.64-28.92Q16.08-28.92 18.52-27.10Q20.96-25.28 20.96-21.64L20.96-21.64Q20.96-19.36 19.94-17.66Q18.92-15.96 17.04-15L17.04-15ZM8.04-25.20L8.04-16.28L12.44-16.28Q14.68-16.28 15.82-17.56Q16.96-18.84 16.96-20.84L16.96-20.84Q16.96-23.04 15.60-24.12Q14.24-25.20 11.80-25.20L11.80-25.20L8.04-25.20ZM12.60-3.60Q15.12-3.60 16.76-4.74Q18.40-5.88 18.40-8.08L18.40-8.08Q18.40-10.36 16.62-11.44Q14.84-12.52 12.32-12.52L12.32-12.52L8.04-12.52L8.04-3.60L12.60-3.60Z M46.28-23.76Q44.72-24.60 42.96-25.12Q41.20-25.64 39.64-25.64L39.64-25.64Q37.28-25.64 35.90-24.58Q34.52-23.52 34.52-21.68L34.52-21.68Q34.52-19.88 36.14-18.74Q37.76-17.60 40.76-16.48L40.76-16.48Q43-15.68 44.54-14.74Q46.08-13.80 47.10-12.14Q48.12-10.48 48.12-7.92L48.12-7.92Q48.12-5.60 46.96-3.72Q45.80-1.84 43.66-0.76Q41.52 0.32 38.64 0.32L38.64 0.32Q35.96 0.32 33.48-0.54Q31-1.40 29.12-2.72L29.12-2.72L30.84-5.80Q32.32-4.68 34.40-3.90Q36.48-3.12 38.28-3.12L38.28-3.12Q40.60-3.12 42.34-4.32Q44.08-5.52 44.08-7.88L44.08-7.88Q44.08-9.88 42.62-11.06Q41.16-12.24 38.52-13.28L38.52-13.28Q36.08-14.20 34.46-15.08Q32.84-15.96 31.68-17.50Q30.52-19.04 30.52-21.36L30.52-21.36Q30.52-24.76 32.90-26.86Q35.28-28.96 39.08-29.08L39.08-29.08Q43.76-29.08 47.76-26.76L47.76-26.76L46.28-23.76Z M57-28.92L60.88-28.92L60.88-3.76L75.60-3.76L75.60 0L57 0L57-28.92Z" fill="#000000"/></g>
</svg>
</g><g opacity="1" transform="rotate(0 483.685 481.2)">
<svg width="232.63" height="120" x="483.685" y="481.2" version="1.1" preserveAspectRatio="none" viewBox="3.28 -29.68 58.08 29.96">
  <g transform="matrix(1 0 0 1 0 0)" class="companyName"><path id="id-D6z1nYkh3" d="M15.12-21.60Q18.24-21.60 20.70-20.24Q23.16-18.88 24.56-16.40Q25.96-13.92 25.96-10.68L25.96-10.68Q25.96-7.44 24.56-4.94Q23.16-2.44 20.70-1.08Q18.24 0.28 15.12 0.28L15.12 0.28Q12.92 0.28 11.10-0.48Q9.28-1.24 8.04-2.76L8.04-2.76L8.04 0L3.28 0L3.28-29.68L8.28-29.68L8.28-18.76Q9.56-20.16 11.30-20.88Q13.04-21.60 15.12-21.60L15.12-21.60ZM14.56-4Q17.32-4 19.10-5.84Q20.88-7.68 20.88-10.68L20.88-10.68Q20.88-13.68 19.10-15.52Q17.32-17.36 14.56-17.36L14.56-17.36Q12.76-17.36 11.32-16.54Q9.88-15.72 9.04-14.20Q8.20-12.68 8.20-10.68L8.20-10.68Q8.20-8.68 9.04-7.16Q9.88-5.64 11.32-4.82Q12.76-4 14.56-4L14.56-4Z M37.32 0.28Q34.72 0.28 32.24-0.40Q29.76-1.08 28.28-2.12L28.28-2.12L30.20-5.92Q31.64-4.96 33.66-4.38Q35.68-3.80 37.64-3.80L37.64-3.80Q42.12-3.80 42.12-6.16L42.12-6.16Q42.12-7.28 40.98-7.72Q39.84-8.16 37.32-8.56L37.32-8.56Q34.68-8.96 33.02-9.48Q31.36-10 30.14-11.30Q28.92-12.60 28.92-14.92L28.92-14.92Q28.92-17.96 31.46-19.78Q34-21.60 38.32-21.60L38.32-21.60Q40.52-21.60 42.72-21.10Q44.92-20.60 46.32-19.76L46.32-19.76L44.40-15.96Q41.68-17.56 38.28-17.56L38.28-17.56Q36.08-17.56 34.94-16.90Q33.80-16.24 33.80-15.16L33.80-15.16Q33.80-13.96 35.02-13.46Q36.24-12.96 38.80-12.52L38.80-12.52Q41.36-12.12 43-11.60Q44.64-11.08 45.82-9.84Q47-8.60 47-6.32L47-6.32Q47-3.32 44.40-1.52Q41.80 0.28 37.32 0.28L37.32 0.28Z M58.36 0.28Q55.04 0.28 53.18-1.54Q51.32-3.36 51.32-6.68L51.32-6.68L51.32-29.68L56.32-29.68L56.32-7.04Q56.32-3.84 59.32-3.84L59.32-3.84Q60.32-3.84 61.12-4.24L61.12-4.24L61.36-0.24Q59.96 0.28 58.36 0.28L58.36 0.28Z" fill="#000000"/></g>
</svg>
</g></svg></svg>