<svg version="1.0" xmlns="http://www.w3.org/2000/svg" width="200.000000pt" height="47.000000pt" viewBox="0 0 200.000000 47.000000" preserveAspectRatio="xMidYMid meet">

<g transform="translate(0.000000,47.000000) scale(0.100000,-0.100000)" fill="#e91e63" stroke="none">
<path d="M336 335 c-3 -8 -8 -37 -12 -65 -7 -52 -14 -60 -33 -36 -8 10 -9 16 -1 21 14 8 13 48 -2 63 -7 7 -41 12 -80 12 l-69 0 3 -92 3 -93 47 -3 c25 -2 62 4 81 12 31 12 35 12 30 0 -3 -9 2 -14 16 -14 13 0 22 8 25 23 9 41 36 179 36 183 0 12 -39 2 -44 -11z m-88 -62 c2 -9 -7 -13 -27 -13 -21 0 -31 5 -31 16 0 19 51 16 58 -3z m7 -68 c0 -5 -15 -11 -32 -13 -25 -3 -33 1 -33 13 0 12 8 16 33 13 17 -2 32 -7 32 -13z" fill="#e91e63"/>
<path d="M1444 250 c0 -58 1 -81 3 -52 2 28 2 76 0 105 -2 28 -3 5 -3 -53z" fill="#e91e63"/>
<path d="M1643 250 c-1 -58 1 -99 4 -93 3 10 10 10 24 2 53 -28 117 21 104 80 -4 21 -17 37 -36 47 -26 13 -33 13 -59 1 l-29 -15 -4 42 c-2 22 -4 -6 -4 -64z m101 14 c35 -34 10 -104 -36 -104 -30 0 -58 28 -58 58 0 52 59 81 94 46z" fill="#e91e63"/>
<path d="M580 287 c-30 -15 -45 -54 -36 -91 9 -38 66 -62 103 -44 32 16 27 34 -8 31 -15 -2 -32 4 -39 12 -11 13 -5 15 40 15 52 0 52 0 45 28 -12 50 -60 73 -105 49z m58 -44 c2 -8 -6 -13 -22 -13 -25 0 -33 10 -19 24 10 10 36 3 41 -11z" fill="#e91e63"/>
<path d="M724 289 c-24 -8 -36 -30 -26 -46 4 -6 24 -18 45 -26 62 -26 39 -73 -24 -50 -16 6 -29 8 -29 3 0 -11 27 -20 60 -20 19 0 33 7 40 21 15 26 1 44 -46 59 -49 16 -43 45 9 44 20 -1 34 2 32 6 -8 13 -40 17 -61 9z" fill="#e91e63"/>
<path d="M868 286 c-16 -8 -28 -11 -28 -5 0 5 -4 9 -10 9 -6 0 -10 -37 -10 -90 0 -53 4 -90 10 -90 6 0 10 14 10 30 0 27 2 30 19 20 34 -18 68 -12 90 16 12 15 21 33 21 40 0 26 -23 62 -47 73 -29 13 -23 14 -55 -3z m66 -22 c20 -20 20 -68 0 -88 -33 -34 -94 -7 -94 42 0 52 59 81 94 46z" fill="#e91e63"/>
<path d="M1184 290 c-26 -10 -54 -48 -54 -71 0 -9 9 -28 21 -43 24 -31 78 -36 100 -9 13 15 12 15 -8 5 -31 -17 -57 -15 -76 6 -48 53 11 125 74 92 10 -6 19 -7 19 -2 0 7 -45 34 -53 31 -1 0 -12 -4 -23 -9z" fill="#e91e63"/>
<path d="M1304 277 c-52 -45 -26 -127 41 -127 18 0 39 7 46 17 13 15 12 15 -8 5 -31 -17 -57 -15 -76 6 -30 33 -21 42 43 42 65 0 75 11 43 48 -29 33 -57 36 -89 9z m74 -9 c26 -26 13 -38 -38 -38 -52 0 -60 8 -34 34 18 19 55 21 72 4z" fill="#e91e63"/>
<path d="M1817 279 c-28 -23 -15 -48 33 -64 40 -13 47 -27 25 -45 -13 -11 -23 -11 -46 -3 -16 6 -29 8 -29 3 0 -21 69 -27 88 -8 24 24 13 49 -28 65 -53 21 -51 49 3 47 40 -1 42 11 2 19 -16 3 -34 -2 -48 -14z" fill="#e91e63"/>
<path d="M390 233 c0 -66 8 -84 36 -84 10 1 38 1 62 1 l42 0 0 70 c0 68 -1 70 -24 70 -23 0 -25 -5 -28 -47 -2 -36 -7 -49 -20 -51 -15 -3 -18 4 -18 47 0 48 -2 51 -25 51 -24 0 -25 -3 -25 -57z" fill="#e91e63"/>
<path d="M1000 281 c0 -5 9 -7 20 -4 32 8 70 -5 70 -25 0 -15 -7 -17 -34 -14 -25 3 -40 -2 -55 -17 -25 -25 -26 -35 -5 -55 10 -11 31 -15 65 -14 l49 2 0 52 c0 35 -5 58 -16 68 -16 17 -94 22 -94 7z m68 -57 c16 -5 22 -13 20 -27 -4 -27 -30 -41 -61 -33 -31 7 -37 39 -9 55 20 12 21 12 50 5z" fill="#e91e63"/>
<path d="M1495 281 c-3 -6 9 -7 31 -4 29 5 40 2 50 -12 20 -27 17 -37 -6 -30 -11 4 -34 4 -50 0 -34 -7 -50 -46 -30 -70 14 -17 75 -21 85 -6 3 6 -8 8 -28 4 -36 -6 -62 14 -51 40 7 19 33 26 69 19 21 -4 25 -9 21 -26 -3 -12 -1 -28 4 -36 7 -10 10 4 10 46 0 33 -5 65 -12 72 -14 14 -84 16 -93 3z" fill="#e91e63"/>
</g>
</svg>