<svg version="1.1" preserveAspectRatio="none" xmlns="http://www.w3.org/2000/svg" width="500" height="500" viewBox="0 0 500 500"><rect width="100%" height="100%" fill="#2254D3" fill-opacity="1"/><svg viewBox="750.6817 489.7046 225.1588 120" width="333" height="177.47474227078843" x="83.5px" y="161.2626px" xmlns="http://www.w3.org/2000/svg" xmlns:xlink="http://www.w3.org/1999/xlink" preserveAspectRatio="none"><defs></defs><style>.companyName {fill:#E9E9E9;fill-opacity:1;}.icon3-str {stroke:#7B7B7B;stroke-opacity:1;}.shape {fill:#FF6A22;fill-opacity:1;}.shapeStroke-str {stroke:#E9E9E9;stroke-opacity:1;}</style><g opacity="1" transform="rotate(0 771.6817 489.7046)">
<svg width="204.1588" height="120" x="771.6817" y="489.7046" version="1.1" preserveAspectRatio="none" viewBox="2.96 -30 51.720000000000006 30.400000000000002">
  <g transform="matrix(1 0 0 1 0 0)" class="companyName"><path id="id-D6z1nYkh3" d="M2.96 0L2.96-30L8.16-30L8.16-18.12L8.24-18.12Q10.60-21.20 14.36-21.20L14.36-21.20Q18.24-21.20 20.46-18.44Q22.68-15.68 22.68-10.40L22.68-10.40Q22.68-5.24 20.38-2.42Q18.08 0.40 14.36 0.40L14.36 0.40Q10.36 0.40 8-2.92L8-2.92L7.92-2.92L7.84 0L2.96 0ZM17.68-10.40L17.68-10.40Q17.68-13.76 16.42-15.44Q15.16-17.12 12.88-17.12L12.88-17.12Q10.76-17.12 9.46-15.38Q8.16-13.64 8.16-10.60L8.16-10.60L8.16-10.20Q8.16-7.08 9.46-5.38Q10.76-3.68 12.88-3.68Q15-3.68 16.34-5.42Q17.68-7.16 17.68-10.40Z M42.60-19.68L41.60-15.76Q38.28-17.28 35.08-17.28L35.08-17.28Q31.40-17.28 31.40-15.12L31.40-15.12Q31.40-14.08 32.20-13.52Q33-12.96 35-12.68L35-12.68Q39.44-12.04 41.36-10.38Q43.28-8.72 43.28-5.80L43.28-5.80Q43.28-2.92 41.06-1.26Q38.84 0.40 34.80 0.40L34.80 0.40Q29.96 0.40 26.20-1.60L26.20-1.60L27.20-5.52Q30.60-3.56 34.52-3.56L34.52-3.56Q38-3.56 38-5.88L38-5.88Q38-6.96 37.28-7.50Q36.56-8.04 34.48-8.40L34.48-8.40Q30.08-9.12 28.18-10.76Q26.28-12.40 26.28-15.20L26.28-15.20Q26.28-17.96 28.46-19.58Q30.64-21.20 34.80-21.20Q38.96-21.20 42.60-19.68L42.60-19.68Z M54.68 0L49.20 0L49.20-30L54.68-30L54.68 0Z"/></g>
</svg>
</g><g opacity="1" transform="rotate(0 750.6817 489.7046)">
<svg width="3" height="120" x="750.6817" y="489.7046" version="1.1" preserveAspectRatio="none" viewBox="0 0 3 120">
  <defs><rect x="0" y="0" width="3" height="120" rx="0px" ry="0px" id="id-tBXipXk0b1701868886589"></rect></defs><use class="shape shapeStroke-str" style="stroke-width:0;" xlink:href="#id-tBXipXk0b1701868886589"></use>
</svg>
</g></svg></svg>